<?xml version="1.0" encoding="UTF-8"?>
<svg width="512" height="512" viewBox="0 0 512 512" fill="none" xmlns="http://www.w3.org/2000/svg">
  <circle cx="256" cy="256" r="240" stroke="#22C55E" stroke-width="32"/>
  <g fill="#3B82F6">
    <path d="M256 120L280 180H232L256 120Z"/>
    <path d="M256 180C292.451 180 322 209.549 322 246C322 282.451 292.451 312 256 312C219.549 312 190 282.451 190 246C190 209.549 219.549 180 256 180Z"/>
    <path d="M256 246L280 392H232L256 246Z"/>
    <path d="M256 246L346.603 301L322.603 343.301L256 246Z"/>
    <path d="M256 246L165.397 301L189.397 343.301L256 246Z"/>
    <path d="M256 246L346.603 191L322.603 148.699L256 246Z"/>
    <path d="M256 246L165.397 191L189.397 148.699L256 246Z"/>
  </g>
</svg>